<svg xmlns="http://www.w3.org/2000/svg" xmlns:xlink="http://www.w3.org/1999/xlink" width="500" zoomAndPan="magnify" viewBox="0 0 375 374.999991" height="500" preserveAspectRatio="xMidYMid meet" version="1.0"><path fill="#e6bf40" d="M 374.996094 187.496094 C 374.996094 190.566406 374.917969 193.632812 374.769531 196.695312 C 374.617188 199.761719 374.390625 202.820312 374.089844 205.875 C 373.789062 208.929688 373.414062 211.972656 372.964844 215.007812 C 372.515625 218.042969 371.988281 221.066406 371.390625 224.074219 C 370.792969 227.085938 370.121094 230.078125 369.375 233.054688 C 368.628906 236.03125 367.8125 238.988281 366.921875 241.925781 C 366.03125 244.859375 365.066406 247.773438 364.035156 250.664062 C 363 253.550781 361.894531 256.414062 360.722656 259.25 C 359.546875 262.085938 358.304688 264.886719 356.992188 267.664062 C 355.679688 270.4375 354.300781 273.175781 352.855469 275.882812 C 351.410156 278.589844 349.894531 281.257812 348.320312 283.890625 C 346.742188 286.523438 345.101562 289.113281 343.394531 291.664062 C 341.691406 294.214844 339.925781 296.722656 338.097656 299.1875 C 336.269531 301.652344 334.382812 304.070312 332.433594 306.445312 C 330.488281 308.816406 328.484375 311.140625 326.421875 313.414062 C 324.363281 315.6875 322.246094 317.90625 320.078125 320.078125 C 317.90625 322.246094 315.6875 324.363281 313.414062 326.421875 C 311.140625 328.484375 308.816406 330.488281 306.445312 332.433594 C 304.070312 334.382812 301.652344 336.269531 299.1875 338.097656 C 296.722656 339.925781 294.214844 341.691406 291.664062 343.394531 C 289.113281 345.101562 286.523438 346.742188 283.890625 348.320312 C 281.257812 349.894531 278.589844 351.410156 275.882812 352.855469 C 273.175781 354.300781 270.4375 355.679688 267.664062 356.992188 C 264.886719 358.304688 262.085938 359.546875 259.25 360.722656 C 256.414062 361.894531 253.550781 363 250.664062 364.035156 C 247.773438 365.066406 244.859375 366.03125 241.925781 366.921875 C 238.988281 367.8125 236.03125 368.628906 233.054688 369.375 C 230.078125 370.121094 227.085938 370.792969 224.074219 371.390625 C 221.066406 371.988281 218.042969 372.515625 215.007812 372.964844 C 211.972656 373.414062 208.929688 373.789062 205.875 374.089844 C 202.820312 374.390625 199.761719 374.617188 196.695312 374.769531 C 193.632812 374.917969 190.566406 374.996094 187.496094 374.996094 C 184.429688 374.996094 181.363281 374.917969 178.296875 374.769531 C 175.230469 374.617188 172.171875 374.390625 169.121094 374.089844 C 166.066406 373.789062 163.019531 373.414062 159.984375 372.964844 C 156.949219 372.515625 153.929688 371.988281 150.917969 371.390625 C 147.910156 370.792969 144.914062 370.121094 141.9375 369.375 C 138.960938 368.628906 136.007812 367.8125 133.070312 366.921875 C 130.132812 366.03125 127.21875 365.066406 124.332031 364.035156 C 121.441406 363 118.578125 361.894531 115.746094 360.722656 C 112.910156 359.546875 110.105469 358.304688 107.332031 356.992188 C 104.558594 355.679688 101.816406 354.300781 99.113281 352.855469 C 96.40625 351.410156 93.738281 349.894531 91.105469 348.320312 C 88.472656 346.742188 85.878906 345.101562 83.328125 343.394531 C 80.777344 341.691406 78.269531 339.925781 75.804688 338.097656 C 73.339844 336.269531 70.921875 334.382812 68.550781 332.433594 C 66.179688 330.488281 63.855469 328.484375 61.582031 326.421875 C 59.308594 324.363281 57.085938 322.246094 54.917969 320.078125 C 52.746094 317.90625 50.632812 315.6875 48.570312 313.414062 C 46.511719 311.140625 44.507812 308.816406 42.558594 306.445312 C 40.613281 304.070312 38.726562 301.652344 36.898438 299.1875 C 35.070312 296.722656 33.304688 294.214844 31.597656 291.664062 C 29.894531 289.113281 28.253906 286.523438 26.675781 283.890625 C 25.097656 281.257812 23.585938 278.589844 22.140625 275.882812 C 20.691406 273.175781 19.3125 270.4375 18 267.664062 C 16.691406 264.886719 15.445312 262.085938 14.273438 259.25 C 13.097656 256.414062 11.992188 253.550781 10.960938 250.664062 C 9.925781 247.773438 8.964844 244.859375 8.074219 241.925781 C 7.183594 238.988281 6.363281 236.03125 5.617188 233.054688 C 4.875 230.078125 4.203125 227.085938 3.601562 224.074219 C 3.003906 221.066406 2.480469 218.042969 2.03125 215.007812 C 1.578125 211.972656 1.203125 208.929688 0.902344 205.875 C 0.601562 202.820312 0.375 199.761719 0.226562 196.695312 C 0.0742188 193.632812 0 190.566406 0 187.496094 C 0 184.429688 0.0742188 181.363281 0.226562 178.296875 C 0.375 175.230469 0.601562 172.171875 0.902344 169.121094 C 1.203125 166.066406 1.578125 163.019531 2.03125 159.984375 C 2.480469 156.949219 3.003906 153.929688 3.601562 150.917969 C 4.203125 147.910156 4.875 144.914062 5.617188 141.9375 C 6.363281 138.960938 7.183594 136.007812 8.074219 133.070312 C 8.964844 130.132812 9.925781 127.21875 10.960938 124.332031 C 11.992188 121.441406 13.097656 118.578125 14.273438 115.746094 C 15.445312 112.910156 16.691406 110.105469 18 107.332031 C 19.3125 104.558594 20.691406 101.816406 22.140625 99.113281 C 23.585938 96.40625 25.097656 93.734375 26.675781 91.105469 C 28.253906 88.472656 29.894531 85.878906 31.597656 83.328125 C 33.304688 80.777344 35.070312 78.269531 36.898438 75.804688 C 38.726562 73.339844 40.613281 70.921875 42.558594 68.550781 C 44.507812 66.179688 46.511719 63.855469 48.570312 61.582031 C 50.632812 59.308594 52.746094 57.085938 54.917969 54.917969 C 57.085938 52.746094 59.308594 50.632812 61.582031 48.570312 C 63.855469 46.511719 66.179688 44.507812 68.550781 42.558594 C 70.921875 40.613281 73.339844 38.726562 75.804688 36.898438 C 78.269531 35.070312 80.777344 33.304688 83.328125 31.597656 C 85.878906 29.894531 88.472656 28.253906 91.105469 26.675781 C 93.738281 25.097656 96.40625 23.585938 99.113281 22.140625 C 101.816406 20.691406 104.558594 19.3125 107.332031 18 C 110.105469 16.691406 112.910156 15.445312 115.746094 14.273438 C 118.578125 13.097656 121.441406 11.992188 124.332031 10.960938 C 127.21875 9.925781 130.132812 8.964844 133.070312 8.074219 C 136.007812 7.183594 138.960938 6.363281 141.9375 5.617188 C 144.914062 4.875 147.910156 4.203125 150.917969 3.601562 C 153.929688 3.003906 156.949219 2.480469 159.984375 2.03125 C 163.019531 1.578125 166.066406 1.203125 169.121094 0.902344 C 172.171875 0.601562 175.230469 0.375 178.296875 0.226562 C 181.363281 0.0742188 184.429688 0 187.496094 0 C 190.566406 0 193.632812 0.0742188 196.695312 0.226562 C 199.761719 0.375 202.820312 0.601562 205.875 0.902344 C 208.929688 1.203125 211.972656 1.578125 215.007812 2.03125 C 218.042969 2.480469 221.066406 3.003906 224.074219 3.601562 C 227.085938 4.203125 230.078125 4.875 233.054688 5.617188 C 236.03125 6.363281 238.988281 7.183594 241.925781 8.074219 C 244.859375 8.964844 247.773438 9.925781 250.664062 10.960938 C 253.550781 11.992188 256.414062 13.097656 259.25 14.273438 C 262.085938 15.445312 264.886719 16.691406 267.664062 18 C 270.4375 19.3125 273.175781 20.691406 275.882812 22.140625 C 278.589844 23.585938 281.257812 25.097656 283.890625 26.675781 C 286.523438 28.253906 289.113281 29.894531 291.664062 31.597656 C 294.214844 33.304688 296.722656 35.070312 299.1875 36.898438 C 301.652344 38.726562 304.070312 40.613281 306.445312 42.558594 C 308.816406 44.507812 311.140625 46.511719 313.414062 48.570312 C 315.6875 50.632812 317.90625 52.746094 320.078125 54.917969 C 322.246094 57.085938 324.363281 59.308594 326.421875 61.582031 C 328.484375 63.855469 330.488281 66.179688 332.433594 68.550781 C 334.382812 70.921875 336.269531 73.339844 338.097656 75.804688 C 339.925781 78.269531 341.691406 80.777344 343.394531 83.328125 C 345.101562 85.878906 346.742188 88.472656 348.320312 91.105469 C 349.894531 93.734375 351.410156 96.40625 352.855469 99.113281 C 354.300781 101.816406 355.679688 104.558594 356.992188 107.332031 C 358.304688 110.105469 359.546875 112.910156 360.722656 115.746094 C 361.894531 118.578125 363 121.441406 364.035156 124.332031 C 365.066406 127.21875 366.03125 130.132812 366.921875 133.070312 C 367.8125 136.007812 368.628906 138.960938 369.375 141.9375 C 370.121094 144.914062 370.792969 147.910156 371.390625 150.917969 C 371.988281 153.929688 372.515625 156.949219 372.964844 159.984375 C 373.414062 163.019531 373.789062 166.066406 374.089844 169.121094 C 374.390625 172.171875 374.617188 175.230469 374.769531 178.296875 C 374.917969 181.363281 374.996094 184.429688 374.996094 187.496094 Z M 374.996094 187.496094 " fill-opacity="1" fill-rule="nonzero"/><path fill="#fefefe" d="M 265.238281 294.710938 C 250.75 294.710938 108.433594 295.089844 107 294.5 L 69.242188 278.917969 C 68.1875 278.480469 67.503906 277.457031 67.503906 276.316406 L 67.503906 151.589844 C 67.503906 150.71875 67.90625 149.894531 68.597656 149.363281 L 106.351562 120.195312 C 106.84375 119.8125 107.449219 119.605469 108.070312 119.605469 L 127.652344 119.605469 L 127.652344 111.742188 C 110.183594 111.742188 111.742188 112.65625 111.742188 94.886719 C 111.742188 86.765625 118.347656 80.164062 126.464844 80.164062 L 145.980469 80.164062 L 145.980469 119.605469 L 151.605469 119.605469 L 151.605469 80.164062 L 164.960938 80.164062 L 164.960938 119.605469 L 170.585938 119.605469 L 170.585938 80.164062 L 183.945312 80.164062 L 183.945312 119.605469 L 189.570312 119.605469 L 189.570312 80.164062 L 209.089844 80.164062 C 217.207031 80.164062 223.808594 86.765625 223.808594 94.886719 C 223.808594 112.730469 225.386719 111.742188 207.621094 111.742188 L 207.621094 119.605469 L 237.089844 119.605469 C 237.710938 119.605469 238.316406 119.8125 238.8125 120.195312 L 266.960938 141.972656 C 267.648438 142.503906 268.054688 143.328125 268.054688 144.199219 L 268.054688 168.09375 L 275.914062 168.09375 C 275.914062 150.625 275 152.183594 292.773438 152.183594 C 300.890625 152.183594 307.496094 158.789062 307.496094 166.90625 L 307.496094 186.425781 L 268.054688 186.425781 L 268.054688 192.050781 L 307.496094 192.050781 L 307.496094 205.40625 L 268.054688 205.40625 L 268.054688 211.03125 L 307.496094 211.03125 L 307.496094 224.386719 L 268.054688 224.386719 L 268.054688 230.011719 L 307.496094 230.011719 L 307.496094 249.53125 C 307.496094 257.648438 300.890625 264.253906 292.773438 264.253906 C 274.925781 264.253906 275.914062 265.828125 275.914062 248.0625 L 268.054688 248.0625 L 268.054688 291.898438 C 268.050781 293.449219 266.792969 294.710938 265.238281 294.710938 Z M 209.089844 273.242188 C 203.738281 273.242188 198.652344 271.566406 194.390625 268.390625 L 120.253906 214.824219 C 85.601562 191.480469 103.308594 141.074219 141.675781 141.074219 C 156.121094 141.074219 167.558594 148.011719 175.460938 159.664062 L 228.847656 233.574219 C 241.105469 250.019531 229.367188 273.242188 209.09375 273.242188 Z M 139.535156 204.503906 C 116.875 204.503906 105.359375 176.917969 121.445312 160.832031 C 137.527344 144.753906 165.121094 156.191406 165.121094 178.925781 C 165.121094 193.0625 153.675781 204.503906 139.535156 204.503906 Z M 139.535156 158.964844 C 121.863281 158.964844 112.871094 180.480469 125.421875 193.035156 C 137.957031 205.574219 159.496094 196.664062 159.496094 178.921875 C 159.496094 167.890625 150.566406 158.964844 139.535156 158.964844 Z M 139.535156 191.449219 C 128.414062 191.449219 122.804688 177.941406 130.679688 170.0625 C 135.574219 165.171875 143.5 165.171875 148.394531 170.0625 C 156.273438 177.9375 150.628906 191.449219 139.535156 191.449219 Z M 139.535156 172.023438 C 133.402344 172.023438 130.324219 179.46875 134.65625 183.800781 C 140.976562 190.117188 150.917969 180.542969 144.417969 174.042969 C 143.113281 172.738281 141.382812 172.023438 139.535156 172.023438 Z M 207.140625 263.738281 C 191.894531 263.738281 184.152344 245.175781 194.972656 234.355469 C 201.699219 227.625 212.585938 227.628906 219.3125 234.355469 C 230.140625 245.1875 222.375 263.738281 207.140625 263.738281 Z M 207.140625 234.9375 C 191.910156 234.9375 191.902344 258.109375 207.140625 258.109375 C 222.378906 258.109375 222.375 234.9375 207.140625 234.9375 Z M 209.089844 277.929688 C 202.765625 277.929688 196.761719 275.886719 191.644531 272.191406 L 117.511719 218.625 C 80.023438 191.539062 98.734375 136.390625 141.675781 136.390625 C 157.605469 136.390625 170.105469 144.246094 179.257812 156.917969 L 232.648438 230.828125 C 246.769531 250.378906 233.386719 277.929688 209.09375 277.929688 Z M 209.089844 277.929688 " fill-opacity="1" fill-rule="evenodd"/><path fill="#ab7712" d="M 262.894531 293.304688 C 258.5 293.304688 252.828125 293.316406 245.332031 293.332031 C 203.394531 293.40625 105.65625 293.578125 104.304688 293.019531 L 66.542969 277.4375 C 65.839844 277.148438 65.261719 276.660156 64.855469 276.054688 C 64.449219 275.449219 64.222656 274.730469 64.222656 273.972656 L 64.226562 273.972656 L 64.226562 149.246094 L 64.222656 149.246094 C 64.222656 148.671875 64.359375 148.105469 64.609375 147.597656 C 64.859375 147.085938 65.222656 146.632812 65.683594 146.28125 L 103.4375 117.109375 C 103.765625 116.859375 104.132812 116.660156 104.519531 116.527344 C 104.90625 116.398438 105.316406 116.328125 105.726562 116.328125 L 124.371094 116.328125 L 124.371094 110.335938 L 122.871094 110.335938 C 115.621094 110.355469 112.09375 110.367188 110.175781 108.335938 C 108.367188 106.417969 108.390625 103.070312 108.441406 96.554688 C 108.453125 95.5625 108.460938 94.457031 108.460938 92.542969 C 108.460938 88.222656 110.214844 84.308594 113.050781 81.472656 C 115.886719 78.640625 119.800781 76.882812 124.121094 76.882812 L 144.574219 76.882812 L 144.574219 116.328125 L 148.328125 116.328125 L 148.328125 76.882812 L 163.558594 76.882812 L 163.558594 116.328125 L 167.308594 116.328125 L 167.308594 76.882812 L 182.539062 76.882812 L 182.539062 116.328125 L 186.289062 116.328125 L 186.289062 76.882812 L 206.75 76.882812 C 211.066406 76.882812 214.980469 78.640625 217.816406 81.472656 C 220.652344 84.308594 222.410156 88.222656 222.410156 92.542969 C 222.410156 94.507812 222.417969 95.566406 222.425781 96.546875 C 222.476562 103.09375 222.5 106.445312 220.660156 108.363281 C 218.734375 110.371094 215.1875 110.359375 207.933594 110.335938 L 206.21875 110.335938 L 206.21875 116.324219 L 234.75 116.324219 C 235.164062 116.324219 235.574219 116.394531 235.964844 116.527344 C 236.351562 116.660156 236.714844 116.859375 237.042969 117.109375 L 265.191406 138.890625 C 265.648438 139.242188 266.015625 139.695312 266.265625 140.203125 C 266.515625 140.710938 266.652344 141.277344 266.652344 141.855469 L 266.652344 164.816406 L 272.640625 164.816406 L 272.640625 163.3125 C 272.621094 156.066406 272.609375 152.535156 274.640625 150.621094 C 276.558594 148.808594 279.90625 148.835938 286.425781 148.886719 C 287.414062 148.894531 288.523438 148.90625 290.4375 148.90625 C 294.753906 148.90625 298.667969 150.660156 301.503906 153.496094 C 304.339844 156.332031 306.097656 160.246094 306.097656 164.5625 L 306.097656 185.019531 L 266.652344 185.019531 L 266.652344 188.769531 L 306.097656 188.769531 L 306.097656 204.003906 L 266.652344 204.003906 L 266.652344 207.753906 L 306.097656 207.753906 L 306.097656 222.984375 L 266.652344 222.984375 L 266.652344 226.734375 L 306.097656 226.734375 L 306.097656 247.191406 C 306.097656 251.507812 304.339844 255.425781 301.503906 258.261719 C 298.667969 261.09375 294.753906 262.851562 290.4375 262.851562 C 288.472656 262.851562 287.410156 262.859375 286.433594 262.867188 C 279.882812 262.917969 276.53125 262.945312 274.613281 261.105469 C 272.605469 259.175781 272.617188 255.628906 272.640625 248.371094 L 272.640625 246.660156 L 266.65625 246.660156 L 266.65625 289.554688 L 266.652344 289.554688 C 266.652344 290.59375 266.230469 291.53125 265.554688 292.207031 C 264.878906 292.882812 263.941406 293.304688 262.90625 293.304688 Z M 245.332031 291.460938 L 262.894531 291.433594 C 263.410156 291.433594 263.882812 291.222656 264.222656 290.882812 C 264.5625 290.539062 264.773438 290.070312 264.773438 289.554688 L 264.769531 289.554688 L 264.769531 244.78125 L 274.507812 244.78125 L 274.507812 245.722656 L 274.496094 248.367188 C 274.476562 255.09375 274.46875 258.375 275.902344 259.753906 C 277.273438 261.070312 280.367188 261.042969 286.410156 260.996094 L 286.414062 260.996094 C 287.867188 260.984375 289.480469 260.972656 290.429688 260.972656 C 294.230469 260.972656 297.675781 259.425781 300.171875 256.929688 C 302.667969 254.433594 304.214844 250.988281 304.214844 247.1875 L 304.214844 228.605469 L 264.769531 228.605469 L 264.769531 221.105469 L 304.214844 221.105469 L 304.214844 209.621094 L 264.769531 209.621094 L 264.769531 202.121094 L 304.214844 202.121094 L 304.214844 190.640625 L 264.769531 190.640625 L 264.769531 183.140625 L 304.214844 183.140625 L 304.214844 164.558594 C 304.214844 160.757812 302.667969 157.3125 300.171875 154.816406 C 297.675781 152.320312 294.230469 150.773438 290.429688 150.773438 C 289.417969 150.773438 287.851562 150.761719 286.402344 150.75 C 280.382812 150.703125 277.289062 150.675781 275.914062 151.976562 C 274.472656 153.339844 274.480469 156.605469 274.5 163.308594 L 274.503906 165.746094 L 274.503906 166.683594 L 264.769531 166.683594 L 264.769531 141.847656 C 264.769531 141.554688 264.703125 141.273438 264.582031 141.023438 L 264.582031 141.019531 C 264.457031 140.769531 264.273438 140.542969 264.042969 140.363281 L 235.894531 118.585938 C 235.730469 118.460938 235.546875 118.359375 235.355469 118.296875 L 235.351562 118.296875 C 235.160156 118.230469 234.953125 118.195312 234.746094 118.195312 L 204.339844 118.195312 L 204.339844 108.453125 L 205.277344 108.453125 L 207.929688 108.464844 C 214.648438 108.484375 217.933594 108.496094 219.308594 107.0625 C 220.625 105.691406 220.601562 102.597656 220.554688 96.554688 C 220.542969 95.097656 220.53125 93.488281 220.53125 92.535156 C 220.53125 88.734375 218.984375 85.289062 216.488281 82.792969 C 213.992188 80.296875 210.546875 78.75 206.746094 78.75 L 188.164062 78.75 L 188.164062 118.195312 L 180.664062 118.195312 L 180.664062 78.75 L 169.179688 78.75 L 169.179688 118.195312 L 161.679688 118.195312 L 161.679688 78.75 L 150.199219 78.75 L 150.199219 118.195312 L 142.699219 118.195312 L 142.699219 78.75 L 124.117188 78.75 C 120.316406 78.75 116.867188 80.296875 114.375 82.792969 C 111.878906 85.289062 110.332031 88.734375 110.332031 92.535156 C 110.332031 93.546875 110.320312 95.109375 110.308594 96.5625 C 110.261719 102.582031 110.238281 105.671875 111.535156 107.046875 C 112.898438 108.488281 116.164062 108.480469 122.867188 108.460938 L 125.304688 108.457031 L 126.242188 108.457031 L 126.242188 118.195312 L 105.722656 118.195312 C 105.511719 118.195312 105.304688 118.230469 105.113281 118.292969 C 104.921875 118.359375 104.738281 118.457031 104.574219 118.582031 L 66.820312 147.753906 C 66.589844 147.929688 66.40625 148.15625 66.28125 148.410156 C 66.160156 148.660156 66.09375 148.945312 66.09375 149.242188 L 66.089844 149.242188 L 66.089844 273.96875 L 66.09375 273.96875 C 66.09375 274.351562 66.207031 274.714844 66.40625 275.011719 C 66.609375 275.3125 66.898438 275.558594 67.25 275.703125 L 105.011719 291.285156 C 106.027344 291.703125 203.503906 291.53125 245.328125 291.457031 Z M 206.75 271.835938 C 203.972656 271.835938 201.265625 271.398438 198.695312 270.550781 C 196.132812 269.707031 193.703125 268.445312 191.492188 266.796875 L 117.386719 213.257812 C 107.878906 206.855469 102.226562 198.441406 99.804688 189.5625 C 97.734375 181.96875 98.027344 174.042969 100.292969 166.746094 C 102.554688 159.445312 106.796875 152.765625 112.617188 147.667969 C 119.523438 141.621094 128.644531 137.796875 139.328125 137.796875 C 146.5625 137.796875 153.0625 139.5 158.765625 142.636719 C 164.695312 145.898438 169.757812 150.714844 173.871094 156.773438 L 227.25 230.675781 C 230.820312 235.464844 232.429688 240.8125 232.429688 246.027344 C 232.429688 250.097656 231.445312 254.089844 229.644531 257.671875 C 227.847656 261.253906 225.234375 264.425781 221.976562 266.851562 C 217.824219 269.949219 212.628906 271.835938 206.742188 271.835938 Z M 199.28125 268.773438 C 201.660156 269.558594 204.171875 269.960938 206.75 269.960938 C 212.210938 269.960938 217.027344 268.214844 220.871094 265.347656 C 223.890625 263.097656 226.3125 260.160156 227.980469 256.835938 C 229.648438 253.519531 230.558594 249.8125 230.558594 246.023438 C 230.558594 241.191406 229.066406 236.230469 225.753906 231.785156 L 225.746094 231.773438 L 172.359375 157.863281 L 172.34375 157.84375 C 168.394531 152.019531 163.546875 147.398438 157.871094 144.277344 C 152.441406 141.292969 146.242188 139.671875 139.332031 139.671875 C 129.132812 139.671875 120.429688 143.316406 113.851562 149.078125 C 108.296875 153.941406 104.246094 160.324219 102.082031 167.296875 C 99.917969 174.269531 99.632812 181.835938 101.609375 189.070312 C 103.921875 197.539062 109.332031 205.570312 118.4375 211.707031 L 118.460938 211.726562 L 192.59375 265.292969 L 192.605469 265.296875 C 194.652344 266.824219 196.902344 267.988281 199.28125 268.773438 Z M 137.195312 203.097656 C 129.605469 203.097656 123.21875 200.113281 118.613281 195.507812 C 116.09375 192.984375 114.105469 189.972656 112.746094 186.699219 C 111.390625 183.425781 110.664062 179.890625 110.664062 176.324219 C 110.664062 169.820312 113.066406 163.203125 118.441406 157.828125 C 123.824219 152.445312 130.453125 150.039062 136.964844 150.039062 C 140.523438 150.039062 144.054688 150.761719 147.324219 152.117188 C 150.59375 153.46875 153.601562 155.453125 156.117188 157.972656 L 156.121094 157.972656 C 160.726562 162.578125 163.714844 168.972656 163.714844 176.582031 C 163.714844 183.910156 160.75 190.539062 155.953125 195.335938 C 151.152344 200.132812 144.523438 203.097656 137.195312 203.097656 Z M 119.9375 194.179688 C 124.210938 198.453125 130.140625 201.226562 137.195312 201.226562 C 144.003906 201.226562 150.167969 198.46875 154.625 194.011719 C 159.082031 189.554688 161.839844 183.390625 161.839844 176.582031 C 161.839844 169.507812 159.070312 163.570312 154.796875 159.296875 C 152.449219 156.949219 149.652344 155.101562 146.613281 153.84375 C 143.574219 152.585938 140.289062 151.914062 136.964844 151.914062 C 130.925781 151.914062 124.769531 154.152344 119.765625 159.152344 C 114.769531 164.148438 112.539062 170.292969 112.539062 176.324219 C 112.539062 179.648438 113.214844 182.941406 114.476562 185.984375 C 115.738281 189.027344 117.589844 191.832031 119.9375 194.179688 Z M 137.195312 157.558594 C 131.75 157.558594 127.175781 159.695312 123.878906 162.988281 C 122.066406 164.800781 120.636719 166.964844 119.660156 169.320312 C 118.6875 171.671875 118.164062 174.210938 118.164062 176.777344 C 118.164062 181.433594 119.890625 186.175781 123.746094 190.03125 C 127.601562 193.890625 132.351562 195.617188 137.015625 195.617188 C 139.578125 195.617188 142.117188 195.09375 144.464844 194.125 C 146.8125 193.152344 148.972656 191.726562 150.785156 189.914062 C 154.078125 186.621094 156.214844 182.039062 156.214844 176.578125 C 156.214844 171.320312 154.089844 166.5625 150.648438 163.121094 C 147.207031 159.683594 142.453125 157.554688 137.195312 157.554688 Z M 122.558594 161.664062 C 126.191406 158.035156 131.21875 155.683594 137.195312 155.683594 C 142.96875 155.683594 148.191406 158.019531 151.972656 161.800781 C 155.753906 165.578125 158.089844 170.804688 158.089844 176.578125 C 158.089844 182.574219 155.734375 187.609375 152.101562 191.242188 C 150.117188 193.226562 147.75 194.789062 145.171875 195.855469 C 142.597656 196.921875 139.816406 197.492188 137.015625 197.492188 C 131.886719 197.492188 126.660156 195.59375 122.417969 191.351562 C 118.183594 187.113281 116.289062 181.898438 116.289062 176.777344 C 116.289062 173.964844 116.863281 171.179688 117.933594 168.601562 C 119 166.027344 120.566406 163.65625 122.558594 161.664062 Z M 137.195312 190.039062 C 133.332031 190.039062 130.085938 188.523438 127.746094 186.183594 C 126.472656 184.910156 125.464844 183.382812 124.773438 181.71875 C 124.085938 180.058594 123.71875 178.269531 123.71875 176.464844 C 123.71875 173.160156 124.941406 169.792969 127.675781 167.058594 C 130.304688 164.429688 133.75 163.113281 137.195312 163.113281 C 140.632812 163.113281 144.078125 164.429688 146.710938 167.058594 C 149.441406 169.789062 150.660156 173.148438 150.660156 176.449219 C 150.660156 178.257812 150.292969 180.050781 149.601562 181.714844 C 148.917969 183.371094 147.910156 184.898438 146.628906 186.179688 C 144.285156 188.523438 141.042969 190.042969 137.195312 190.042969 Z M 129.074219 184.859375 C 131.078125 186.867188 133.867188 188.167969 137.195312 188.167969 C 140.511719 188.167969 143.300781 186.867188 145.304688 184.859375 C 146.410156 183.753906 147.28125 182.433594 147.875 180.996094 C 148.46875 179.566406 148.789062 178.015625 148.789062 176.449219 C 148.789062 173.617188 147.738281 170.726562 145.394531 168.382812 C 143.128906 166.121094 140.160156 164.988281 137.195312 164.988281 C 134.230469 164.988281 131.265625 166.121094 129.003906 168.382812 C 126.648438 170.734375 125.597656 173.628906 125.597656 176.464844 C 125.597656 178.03125 125.914062 179.578125 126.503906 181.007812 C 127.09375 182.433594 127.964844 183.75 129.074219 184.859375 Z M 137.195312 170.617188 C 135.480469 170.617188 134.042969 171.285156 133.015625 172.3125 C 132.449219 172.882812 132 173.5625 131.695312 174.300781 C 131.390625 175.035156 131.226562 175.832031 131.226562 176.640625 C 131.226562 178.101562 131.769531 179.589844 132.976562 180.796875 C 134.953125 182.773438 137.332031 182.949219 139.292969 182.105469 C 140.070312 181.769531 140.785156 181.28125 141.382812 180.683594 C 141.984375 180.085938 142.472656 179.378906 142.800781 178.613281 C 143.621094 176.699219 143.421875 174.367188 141.417969 172.363281 C 140.851562 171.800781 140.191406 171.359375 139.476562 171.0625 C 138.765625 170.769531 137.992188 170.617188 137.195312 170.617188 Z M 131.691406 170.996094 C 133.054688 169.628906 134.949219 168.742188 137.195312 168.742188 C 138.238281 168.742188 139.253906 168.949219 140.195312 169.335938 C 141.132812 169.726562 141.992188 170.300781 142.734375 171.039062 C 145.375 173.675781 145.621094 176.777344 144.523438 179.347656 C 144.097656 180.335938 143.472656 181.246094 142.703125 182.011719 C 141.933594 182.773438 141.023438 183.402344 140.03125 183.824219 C 137.417969 184.949219 134.261719 184.726562 131.65625 182.121094 C 130.066406 180.53125 129.351562 178.570312 129.351562 176.640625 C 129.351562 175.597656 129.566406 174.554688 129.964844 173.589844 C 130.363281 172.625 130.949219 171.738281 131.691406 170.996094 Z M 204.796875 262.332031 C 199.605469 262.332031 195.238281 260.289062 192.085938 257.136719 C 190.359375 255.410156 189 253.347656 188.070312 251.109375 C 187.140625 248.871094 186.644531 246.453125 186.644531 244.011719 C 186.644531 239.5625 188.289062 235.03125 191.964844 231.351562 L 191.964844 231.347656 L 191.972656 231.347656 C 195.515625 227.804688 200.15625 226.03125 204.800781 226.035156 C 209.441406 226.035156 214.085938 227.808594 217.628906 231.347656 L 217.632812 231.351562 C 221.3125 235.03125 222.957031 239.5625 222.957031 244.011719 C 222.957031 246.453125 222.457031 248.871094 221.527344 251.109375 C 220.601562 253.34375 219.238281 255.402344 217.511719 257.132812 L 217.511719 257.136719 C 214.359375 260.289062 209.988281 262.335938 204.796875 262.335938 Z M 193.410156 255.8125 C 196.230469 258.628906 200.144531 260.457031 204.796875 260.457031 C 209.453125 260.457031 213.367188 258.628906 216.1875 255.808594 L 216.191406 255.808594 C 217.742188 254.261719 218.964844 252.40625 219.800781 250.390625 C 220.636719 248.382812 221.082031 246.207031 221.082031 244.011719 C 221.082031 240.03125 219.609375 235.976562 216.308594 232.675781 L 216.304688 232.671875 C 213.125 229.492188 208.960938 227.898438 204.800781 227.898438 C 200.640625 227.898438 196.472656 229.488281 193.292969 232.667969 L 193.292969 232.671875 L 193.289062 232.671875 C 189.992188 235.972656 188.519531 240.027344 188.519531 244.011719 C 188.519531 246.207031 188.964844 248.382812 189.796875 250.394531 C 190.632812 252.40625 191.855469 254.257812 193.410156 255.8125 Z M 204.796875 233.53125 C 199.757812 233.53125 196.539062 236.277344 195.136719 239.789062 C 194.585938 241.167969 194.308594 242.671875 194.308594 244.183594 C 194.308594 245.695312 194.585938 247.199219 195.136719 248.578125 C 196.539062 252.085938 199.757812 254.832031 204.800781 254.832031 C 209.839844 254.832031 213.0625 252.085938 214.464844 248.578125 L 214.464844 248.574219 C 215.011719 247.195312 215.289062 245.691406 215.289062 244.183594 C 215.289062 242.671875 215.011719 241.167969 214.460938 239.789062 C 213.058594 236.277344 209.839844 233.53125 204.796875 233.53125 Z M 193.402344 239.097656 C 195.070312 234.921875 198.871094 231.660156 204.796875 231.660156 C 210.726562 231.660156 214.527344 234.921875 216.195312 239.097656 C 216.839844 240.707031 217.164062 242.449219 217.164062 244.183594 C 217.164062 245.917969 216.839844 247.660156 216.195312 249.269531 C 214.527344 253.445312 210.726562 256.707031 204.796875 256.707031 C 198.871094 256.707031 195.066406 253.445312 193.398438 249.265625 C 192.757812 247.65625 192.433594 245.914062 192.433594 244.183594 C 192.433594 242.449219 192.757812 240.707031 193.402344 239.097656 Z M 206.75 276.523438 C 203.515625 276.523438 200.355469 276.003906 197.351562 275.015625 C 194.308594 274.015625 191.417969 272.527344 188.761719 270.605469 L 114.625 217.039062 C 104.363281 209.628906 98.230469 200.140625 95.601562 190.226562 C 93.304688 181.570312 93.679688 172.59375 96.304688 164.394531 C 98.933594 156.1875 103.816406 148.757812 110.53125 143.203125 C 118.042969 136.984375 127.84375 133.109375 139.335938 133.109375 C 147.207031 133.109375 154.269531 134.992188 160.523438 138.410156 C 167.164062 142.035156 172.875 147.382812 177.675781 154.03125 L 231.066406 227.941406 C 235.148438 233.59375 237.003906 239.894531 237.003906 246.039062 C 237.003906 250.933594 235.824219 255.730469 233.65625 260.015625 C 231.492188 264.300781 228.335938 268.078125 224.382812 270.933594 C 219.5625 274.414062 213.570312 276.523438 206.75 276.523438 Z M 197.9375 273.238281 C 200.753906 274.164062 203.710938 274.648438 206.75 274.648438 C 213.160156 274.648438 218.78125 272.675781 223.289062 269.417969 C 226.992188 266.742188 229.949219 263.199219 231.984375 259.175781 C 234.019531 255.152344 235.125 250.644531 235.125 246.039062 C 235.125 240.265625 233.382812 234.34375 229.546875 229.03125 L 176.160156 155.121094 C 171.519531 148.699219 166.011719 143.535156 159.628906 140.050781 C 153.652344 136.785156 146.886719 134.984375 139.332031 134.984375 C 128.304688 134.984375 118.914062 138.695312 111.722656 144.644531 C 105.285156 149.972656 100.601562 157.097656 98.082031 164.964844 C 95.5625 172.832031 95.203125 181.445312 97.40625 189.753906 C 99.933594 199.269531 105.832031 208.386719 115.714844 215.527344 L 189.847656 269.089844 C 192.34375 270.894531 195.066406 272.292969 197.9375 273.238281 Z M 197.9375 273.238281 " fill-opacity="1" fill-rule="nonzero"/></svg>